<?xml version="1.0" standalone="no"?>
<!DOCTYPE svg PUBLIC "-//W3C//DTD SVG 20010904//EN"
 "http://www.w3.org/TR/2001/REC-SVG-20010904/DTD/svg10.dtd">
<svg version="1.0" xmlns="http://www.w3.org/2000/svg"
 width="112.000000pt" height="112.000000pt" viewBox="0 0 112.000000 112.000000"
 preserveAspectRatio="xMidYMid meet">
<metadata>
Created by potrace 1.11, written by Peter Selinger 2001-2013
</metadata>
<g transform="translate(0.000000,112.000000) scale(0.100000,-0.100000)"
fill="#000000" stroke="none">
<path d="M631 1016 c-40 -54 -41 -54 -103 -60 -163 -15 -287 -16 -295 -4 -16
26 -95 80 -103 72 -5 -5 -5 -29 0 -54 4 -25 9 -168 10 -318 0 -150 3 -278 5
-285 3 -7 7 -82 9 -167 2 -85 5 -165 5 -177 l1 -23 330 0 330 0 0 23 c0 29
-19 187 -26 208 -3 12 16 25 73 51 43 20 94 42 114 48 71 25 72 27 43 116 -19
59 -24 90 -19 124 6 40 3 49 -20 74 -31 33 -67 30 -102 -9 -12 -14 -24 -25
-26 -25 -14 0 -14 33 -1 59 14 27 13 33 -2 56 -15 23 -15 27 0 60 16 33 15 55
-3 55 -4 0 -13 -10 -19 -22 -10 -23 -11 -23 -11 5 -1 31 -20 37 -28 7 -7 -26
-15 -25 -42 3 -14 16 -25 46 -32 88 -21 128 -24 142 -36 146 -6 2 -30 -20 -52
-51z m269 -498 c16 -38 30 -74 30 -82 0 -15 -99 -50 -127 -44 -29 5 -40 111
-16 155 16 30 18 31 25 13 11 -29 31 -25 26 4 -4 19 -1 24 13 23 12 -1 28 -24
49 -69z"/>
</g>
</svg>
